<?xml version="1.0" encoding="iso-8859-1"?>
<!-- Generator: Adobe Illustrator 19.0.0, SVG Export Plug-In . SVG Version: 6.00 Build 0)  -->
<svg version="1.1" id="Capa_1" xmlns="http://www.w3.org/2000/svg" xmlns:xlink="http://www.w3.org/1999/xlink" x="0px" y="0px"
	 viewBox="0 0 464 464" style="enable-background:new 0 0 464 464;" xml:space="preserve">
<path style="fill:#7E8E9C;" d="M336,376l128,72V240l-128,73.6V376z"/>
<path style="fill:#5A6570;" d="M336,320v56l48,27v-24l-12.664-8.544C353.736,358.572,341.151,340.602,336,320z"/>
<path style="fill:#364E5E;" d="M264,16c-66.274,0-120,53.726-120,120s53.726,120,120,120s120-53.726,120-120S330.274,16,264,16z
	 M200,152c-13.255,0-24-10.745-24-24s10.745-24,24-24s24,10.745,24,24S213.255,152,200,152z M264,224c-13.255,0-24-10.745-24-24
	s10.745-24,24-24s24,10.745,24,24S277.255,224,264,224z M256,136c0-4.418,3.582-8,8-8s8,3.582,8,8s-3.582,8-8,8S256,140.418,256,136
	z M264,96c-13.255,0-24-10.745-24-24s10.745-24,24-24s24,10.745,24,24S277.255,96,264,96z M328,160c-13.255,0-24-10.745-24-24
	s10.745-24,24-24s24,10.745,24,24S341.255,160,328,160z"/>
<path style="fill:#7E8E9C;" d="M58.528,256h242.944C320.541,256,336,271.459,336,290.528v106.944
	C336,416.541,320.541,432,301.472,432H58.528C39.459,432,24,416.541,24,397.472V290.528C24,271.459,39.459,256,58.528,256z"/>
<path style="fill:#5A6570;" d="M301.472,432H58.528C39.461,431.996,24.004,416.539,24,397.472V290.528
	c14.389,65.633,68.537,115.1,135.2,123.512L301.472,432z"/>
<g>
	<path style="fill:#364E5E;" d="M192,352H64c-4.418,0-8-3.582-8-8s3.582-8,8-8h128c4.418,0,8,3.582,8,8S196.418,352,192,352z"/>
	<path style="fill:#364E5E;" d="M192,384H64c-4.418,0-8-3.582-8-8s3.582-8,8-8h128c4.418,0,8,3.582,8,8S196.418,384,192,384z"/>
	<path style="fill:#364E5E;" d="M192,320H64c-4.418,0-8-3.582-8-8s3.582-8,8-8h128c4.418,0,8,3.582,8,8S196.418,320,192,320z"/>
</g>
<path style="fill:#FFDB43;" d="M240,352h-16c-4.418,0-8-3.582-8-8s3.582-8,8-8h16c4.418,0,8,3.582,8,8S244.418,352,240,352z"/>
<path style="fill:#4FB86A;" d="M240,320h-16c-4.418,0-8-3.582-8-8s3.582-8,8-8h16c4.418,0,8,3.582,8,8S244.418,320,240,320z"/>
<path style="fill:#E3472C;" d="M240,384h-16c-4.418,0-8-3.582-8-8s3.582-8,8-8h16c4.418,0,8,3.582,8,8S244.418,384,240,384z"/>
<path style="fill:#364E5E;" d="M56,144c-30.928,0-56,25.072-56,56s25.072,56,56,56s56-25.072,56-56S86.928,144,56,144z M56,216
	c-8.837,0-16-7.163-16-16s7.163-16,16-16s16,7.163,16,16S64.837,216,56,216z"/>
<g>
	<path style="fill:#FFFFFF;" d="M400,320h16v16h-16V320z"/>
	<path style="fill:#FFFFFF;" d="M400,352h16v16h-16V352z"/>
	<path style="fill:#FFFFFF;" d="M400,288h16v16h-16V288z"/>
</g>
<g>
	<path style="fill:#5A6570;" d="M400,388v24l16,9v-24L400,388z"/>
	<path style="fill:#5A6570;" d="M464,424l-32-18v24l32,18V424z"/>
	<path style="fill:#5A6570;" d="M384,379v24l16,9v-24L384,379z"/>
	<path style="fill:#5A6570;" d="M416,397v24l16,9v-24L416,397z"/>
</g>
<path style="fill:#FFFFFF;" d="M400,384h16v16h-16V384z"/>
<g>
	<path style="fill:#5A6570;" d="M384,379l16,9V277.056l-16,9.256V379z"/>
	<path style="fill:#5A6570;" d="M416,267.792V397l16,9V258.528L416,267.792z"/>
</g>
<g>
</g>
<g>
</g>
<g>
</g>
<g>
</g>
<g>
</g>
<g>
</g>
<g>
</g>
<g>
</g>
<g>
</g>
<g>
</g>
<g>
</g>
<g>
</g>
<g>
</g>
<g>
</g>
<g>
</g>
</svg>
